<svg width="30" height="30" viewBox="0 0 30 30" fill="none" xmlns="http://www.w3.org/2000/svg">
<g id="Arrow" clip-path="url(#clip0_2_58)">
<g id="Vector" filter="url(#filter0_d_2_58)">
<path d="M22.2872 12.0127L15.0001 19.7283L7.71287 12.0127C7.62885 11.9212 7.52749 11.8473 7.41468 11.7954C7.30187 11.7434 7.17987 11.7144 7.05575 11.71C6.93163 11.7056 6.80787 11.7259 6.69166 11.7697C6.57545 11.8135 6.46911 11.88 6.37881 11.9653C6.28851 12.0505 6.21605 12.1529 6.16564 12.2664C6.11524 12.3799 6.08789 12.5023 6.08518 12.6265C6.08248 12.7506 6.10447 12.8741 6.14989 12.9897C6.19531 13.1053 6.26324 13.2107 6.34974 13.2998L14.3185 21.7373C14.4062 21.8301 14.5118 21.9039 14.629 21.9544C14.7462 22.0049 14.8725 22.0309 15.0001 22.0309C15.1277 22.0309 15.2539 22.0049 15.3711 21.9544C15.4883 21.9039 15.594 21.8301 15.6816 21.7373L23.6504 13.2998C23.8171 13.1184 23.9056 12.8786 23.8969 12.6323C23.8881 12.3861 23.7828 12.1532 23.6036 11.984C23.4245 11.8148 23.1859 11.723 22.9395 11.7283C22.6932 11.7337 22.4589 11.8358 22.2872 12.0127Z" fill="#EC6D5E"/>
</g>
<path id="Vector_2" d="M15 0C10.9931 0 7.22672 1.56047 4.39359 4.39406C1.56047 7.22672 0 10.9936 0 15C0 19.0064 1.56047 22.7733 4.39359 25.6059C7.22672 28.4395 10.9931 30 15 30C19.0069 30 22.7733 28.4395 25.6059 25.6059C28.4395 22.7733 30 19.0064 30 15C30 10.9936 28.4391 7.22672 25.6059 4.39406C22.7733 1.56047 19.0069 0 15 0ZM24.2798 24.2803C21.8016 26.7595 18.5058 28.125 15 28.125C11.4942 28.125 8.19844 26.7595 5.71922 24.2803C3.24047 21.8016 1.875 18.5058 1.875 15C1.875 11.4942 3.24047 8.19844 5.71969 5.71969C8.19844 3.24047 11.4942 1.875 15 1.875C18.5058 1.875 21.8016 3.24047 24.2803 5.72016C26.7595 8.19891 28.125 11.4942 28.125 15C28.125 18.5058 26.7595 21.8011 24.2798 24.2803Z" fill="#EC6D5E"/>
</g>
<defs>
<filter id="filter0_d_2_58" x="2.08496" y="11.7094" width="25.8125" height="18.3215" filterUnits="userSpaceOnUse" color-interpolation-filters="sRGB">
<feFlood flood-opacity="0" result="BackgroundImageFix"/>
<feColorMatrix in="SourceAlpha" type="matrix" values="0 0 0 0 0 0 0 0 0 0 0 0 0 0 0 0 0 0 127 0" result="hardAlpha"/>
<feOffset dy="4"/>
<feGaussianBlur stdDeviation="2"/>
<feComposite in2="hardAlpha" operator="out"/>
<feColorMatrix type="matrix" values="0 0 0 0 0 0 0 0 0 0 0 0 0 0 0 0 0 0 0.25 0"/>
<feBlend mode="normal" in2="BackgroundImageFix" result="effect1_dropShadow_2_58"/>
<feBlend mode="normal" in="SourceGraphic" in2="effect1_dropShadow_2_58" result="shape"/>
</filter>
<clipPath id="clip0_2_58">
<rect width="30" height="30" fill="white"/>
</clipPath>
</defs>
</svg>
