<svg width="446" height="110" viewBox="0 0 446 110" fill="none" xmlns="http://www.w3.org/2000/svg">
<g filter="url(#filter0_d_2_49)">
<path d="M420.333 91C420.333 96.891 425.109 101.667 431 101.667C436.891 101.667 441.667 96.891 441.667 91C441.667 85.109 436.891 80.3333 431 80.3333C425.109 80.3333 420.333 85.109 420.333 91ZM4 93H431V89H4V93Z" fill="#383747"/>
<path d="M5.03125 65V60.5312H12.7188V22.4375H5.03125V17.9688H47.5312V36.0625H41.875V22.4375H20.0625V39.3438H31.7188V31.6562H35.875V51.0625H31.7188V42.9062H20.0625V60.5312H41.875V47.1562H47.5312V65H5.03125ZM67.26 65.8438C65.5517 65.8438 64.0413 65.5417 62.7288 64.9375C61.4163 64.3125 60.3954 63.4167 59.6663 62.25C58.9371 61.0833 58.5725 59.7188 58.5725 58.1562C58.5725 56.9271 58.8433 55.8021 59.385 54.7812C59.9475 53.7396 60.7079 52.8646 61.6663 52.1562C62.5829 51.4688 63.6246 50.8125 64.7913 50.1875C65.9788 49.5625 67.1871 49.0208 68.4163 48.5625C70.9163 47.6667 73.1663 46.6354 75.1663 45.4688C76.1246 44.9062 76.8746 44.2292 77.4163 43.4375C77.9579 42.6458 78.2288 41.7917 78.2288 40.875C78.2288 38.5417 77.6558 36.7917 76.51 35.625C75.3642 34.4375 73.7183 33.8438 71.5725 33.8438C70.0725 33.8438 68.6558 34.0833 67.3225 34.5625C66.01 35.0208 64.9892 35.6562 64.26 36.4688C65.5517 36.4688 66.5933 36.8229 67.385 37.5312C68.1975 38.2188 68.6038 39.0729 68.6038 40.0938C68.6038 40.9479 68.4058 41.7188 68.01 42.4062C67.635 43.0729 67.1142 43.5938 66.4475 43.9688C65.7808 44.3438 65.0517 44.5312 64.26 44.5312C62.9683 44.5312 61.8746 44.0833 60.9788 43.1875C60.1038 42.2917 59.6663 41.0521 59.6663 39.4688C59.6663 38.6146 59.9475 37.6979 60.51 36.7188C61.0725 35.7188 61.8642 34.75 62.885 33.8125C63.9475 32.8333 65.3642 32.0521 67.135 31.4688C68.9267 30.8646 70.8538 30.5625 72.9163 30.5625C74.6454 30.5625 76.2079 30.7604 77.6038 31.1562C78.9996 31.5312 80.26 32.1354 81.385 32.9688C82.5308 33.8229 83.4058 35 84.01 36.5C84.635 38 84.9475 39.7604 84.9475 41.7812V56.1562C84.9475 57.0521 85.0517 57.8646 85.26 58.5938C85.4892 59.3021 85.8746 59.9375 86.4163 60.5C87.0204 61.1042 87.76 61.4062 88.635 61.4062C91.2808 61.4062 92.6038 59.5521 92.6038 55.8438V51.1875H96.01V55.2188C96.01 57.2812 95.7913 59.0417 95.3538 60.5C94.9163 61.9375 94.2808 63.0312 93.4475 63.7812C92.635 64.5104 91.7392 65.0312 90.76 65.3438C89.7808 65.6771 88.6246 65.8438 87.2913 65.8438C85.8538 65.8438 84.5308 65.5625 83.3225 65C82.135 64.4375 81.1246 63.5729 80.2913 62.4062C79.3954 61.1771 78.8746 59.7188 78.7288 58.0312C78.1454 59.5312 77.26 60.875 76.0725 62.0625C74.9058 63.25 73.5517 64.1771 72.01 64.8438C70.4683 65.5104 68.885 65.8438 67.26 65.8438ZM68.885 61.3438C70.2392 61.3438 71.6558 60.9375 73.135 60.125C74.6142 59.3125 75.8329 58.2708 76.7913 57C77.7496 55.7708 78.2288 54.5729 78.2288 53.4062V46.75C77.0413 47.9375 75.6038 49.0521 73.9163 50.0938C72.2496 51.1354 70.7288 51.9688 69.3538 52.5938C68.1246 53.1354 67.1246 53.8542 66.3538 54.75C65.6038 55.625 65.2288 56.6562 65.2288 57.8438C65.2288 58.9062 65.5413 59.7604 66.1663 60.4062C66.8121 61.0312 67.7183 61.3438 68.885 61.3438ZM117.583 65.8438C114.228 65.8438 111.208 65.2083 108.52 63.9375C107.124 63.2917 106.02 62.4062 105.208 61.2812C104.395 60.1354 103.989 58.8438 103.989 57.4062C103.989 56.5312 104.187 55.7396 104.583 55.0312C104.978 54.3021 105.499 53.7396 106.145 53.3438C106.812 52.9479 107.52 52.75 108.27 52.75C109.499 52.75 110.51 53.0833 111.301 53.75C112.093 54.4167 112.489 55.3438 112.489 56.5312C112.489 57.2188 112.343 57.8438 112.051 58.4062C111.78 58.9688 111.405 59.4167 110.926 59.75C110.447 60.0625 109.947 60.2188 109.426 60.2188C110.239 60.8021 111.322 61.2917 112.676 61.6875C114.051 62.0625 115.416 62.25 116.77 62.25C118.499 62.25 119.968 62.0833 121.176 61.75C122.405 61.4167 123.447 60.8438 124.301 60.0312C125.197 59.1979 125.645 58.1042 125.645 56.75C125.645 55.7708 125.343 54.8854 124.739 54.0938C124.135 53.3021 123.322 52.6771 122.301 52.2188C120.03 51.1979 117.583 50.3438 114.958 49.6562C113.603 49.3021 112.28 48.8542 110.989 48.3125C109.718 47.7708 108.593 47.1667 107.614 46.5C106.572 45.8125 105.749 44.9167 105.145 43.8125C104.562 42.7083 104.27 41.4688 104.27 40.0938C104.27 38.7188 104.562 37.4688 105.145 36.3438C105.749 35.1979 106.541 34.2604 107.52 33.5312C108.437 32.8646 109.489 32.2917 110.676 31.8125C111.885 31.3333 113.062 31 114.208 30.8125C115.374 30.6458 116.437 30.5625 117.395 30.5625C118.895 30.5625 120.405 30.7292 121.926 31.0625C123.468 31.3958 124.905 31.8646 126.239 32.4688C127.593 33.1146 128.676 33.9479 129.489 34.9688C130.301 35.9688 130.708 37.0521 130.708 38.2188C130.708 39.1146 130.52 39.9271 130.145 40.6562C129.791 41.3646 129.301 41.9167 128.676 42.3125C128.051 42.7083 127.385 42.9062 126.676 42.9062C125.447 42.9062 124.426 42.5417 123.614 41.8125C122.801 41.0833 122.395 40.1042 122.395 38.875C122.395 38.3333 122.53 37.8125 122.801 37.3125C123.072 36.7917 123.364 36.4062 123.676 36.1562L124.77 35.4062C122.708 34.4062 120.374 33.9062 117.77 33.9062C116.333 33.9062 115.03 34.125 113.864 34.5625C112.697 34.9792 111.78 35.5938 111.114 36.4062C110.447 37.2188 110.114 38.1771 110.114 39.2812C110.114 40.0729 110.416 40.7917 111.02 41.4375C111.624 42.0833 112.447 42.5938 113.489 42.9688C115.905 43.9062 118.364 44.7083 120.864 45.375C122.197 45.75 123.51 46.2396 124.801 46.8438C126.093 47.4479 127.249 48.125 128.27 48.875C129.312 49.625 130.124 50.6042 130.708 51.8125C131.312 53 131.614 54.3229 131.614 55.7812C131.614 57.2604 131.343 58.5938 130.801 59.7812C130.26 60.9688 129.53 61.9479 128.614 62.7188C127.76 63.4479 126.718 64.0625 125.489 64.5625C124.26 65.0417 122.978 65.375 121.645 65.5625C120.374 65.75 119.02 65.8438 117.583 65.8438ZM151.03 79.5938C149.134 79.5938 147.447 79.2917 145.967 78.6875C144.509 78.1042 143.363 77.2812 142.53 76.2188C141.717 75.1771 141.311 73.9792 141.311 72.625C141.311 71.1458 141.79 69.9375 142.749 69C143.728 68.0833 145.04 67.625 146.686 67.625C147.936 67.625 148.895 68.0417 149.561 68.875C150.249 69.7292 150.592 70.8229 150.592 72.1562C150.592 72.8854 150.353 73.5521 149.874 74.1562C149.395 74.7604 148.759 75.25 147.967 75.625C148.822 76.0833 149.509 76.3125 150.03 76.3125C151.905 76.3125 153.467 75.4688 154.717 73.7812C155.967 72.1146 156.915 69.4271 157.561 65.7188L145.155 34.9688H138.936V31.4688H158.217V34.9688H152.53L161.592 59.5L169.342 34.9688H164.155V31.4688H180.217V34.9688H174.842L164.092 65.125C162.863 68.6875 161.603 71.5208 160.311 73.625C159.02 75.7292 157.624 77.25 156.124 78.1875C154.624 79.125 152.926 79.5938 151.03 79.5938ZM210.384 65.8438C207.217 65.8438 204.228 65.1875 201.415 63.875C198.623 62.5625 196.248 60.7604 194.29 58.4688C192.353 56.1979 190.842 53.5521 189.759 50.5312C188.696 47.4896 188.165 44.3125 188.165 41C188.165 37.5833 188.707 34.3958 189.79 31.4375C190.894 28.4792 192.446 25.9271 194.446 23.7812C196.467 21.6354 198.905 19.9688 201.759 18.7812C204.634 17.5938 207.738 17 211.071 17C213.967 17 216.717 17.6146 219.321 18.8438C221.946 20.0521 224.103 21.7604 225.79 23.9688C227.498 26.1979 228.353 28.6979 228.353 31.4688C228.353 32.4271 228.092 33.3438 227.571 34.2188C227.071 35.0938 226.353 35.8021 225.415 36.3438C224.478 36.8854 223.415 37.1562 222.228 37.1562C220.623 37.1562 219.332 36.6875 218.353 35.75C217.394 34.8125 216.915 33.5521 216.915 31.9688C216.915 30.9479 217.196 30.0625 217.759 29.3125C218.321 28.5417 219.03 27.9583 219.884 27.5625C220.738 27.1667 221.603 26.9688 222.478 26.9688C221.415 25.3229 219.863 23.9792 217.821 22.9375C215.8 21.8958 213.53 21.375 211.009 21.375C208.196 21.375 205.675 22.1875 203.446 23.8125C201.238 25.4375 199.509 27.75 198.259 30.75C197.03 33.7292 196.415 37.1875 196.415 41.125C196.415 43.4167 196.78 45.6771 197.509 47.9062C198.238 50.1146 199.259 52.1354 200.571 53.9688C201.925 55.8438 203.623 57.3333 205.665 58.4375C207.728 59.5208 209.957 60.0625 212.353 60.0625C214.144 60.0625 215.842 59.7292 217.446 59.0625C219.071 58.375 220.457 57.4583 221.603 56.3125C222.707 55.2083 223.634 54.0104 224.384 52.7188C225.134 51.4271 225.686 50.0833 226.04 48.6875L230.228 50.7188C229.103 55.5729 226.842 59.3125 223.446 61.9375C220.071 64.5417 215.717 65.8438 210.384 65.8438ZM255.238 65.8438C251.967 65.8438 249.092 65.0938 246.613 63.5938C244.133 62.0729 242.217 59.9792 240.863 57.3125C239.529 54.6458 238.863 51.6146 238.863 48.2188C238.863 44.8438 239.498 41.8333 240.769 39.1875C242.06 36.5417 243.946 34.4479 246.425 32.9062C248.925 31.3438 251.842 30.5625 255.175 30.5625C257.633 30.5625 259.894 31.0104 261.956 31.9062C264.04 32.8021 265.779 34.0521 267.175 35.6562C268.55 37.2396 269.602 39.1146 270.331 41.2812C271.06 43.4271 271.425 45.7396 271.425 48.2188C271.425 51.5729 270.79 54.5729 269.519 57.2188C268.248 59.8438 266.383 61.9271 263.925 63.4688C261.467 65.0521 258.571 65.8438 255.238 65.8438ZM255.238 61.875C257.071 61.875 258.665 61.3333 260.019 60.25C261.394 59.1458 262.446 57.5938 263.175 55.5938C263.904 53.5938 264.269 51.2708 264.269 48.625C264.269 45.7292 263.956 43.25 263.331 41.1875C262.706 39.1042 261.717 37.4375 260.363 36.1875C258.967 34.9167 257.238 34.2812 255.175 34.2812C253.154 34.2812 251.435 34.9062 250.019 36.1562C248.602 37.4062 247.581 39.1146 246.956 41.2812C246.331 43.3646 246.019 45.8125 246.019 48.625C246.019 51.2708 246.383 53.5938 247.113 55.5938C247.863 57.5938 248.935 59.1458 250.331 60.25C251.727 61.3333 253.363 61.875 255.238 61.875ZM356.33 65.625C354.163 65.625 352.278 65.0625 350.674 63.9375C349.07 62.8125 347.59 61.0938 346.236 58.7812L339.955 47.9688L334.768 51.9375V61.5H340.08V65H321.736V61.5H328.049V21.8125H321.736V17.9688H334.768V47.1562L347.83 34.9688H341.955V31.4688H360.705V34.9688H354.736L343.924 45.3438C344.528 46.1771 345.351 47.4375 346.393 49.125C347.497 50.9167 348.424 52.375 349.174 53.5C349.945 54.625 350.788 55.7604 351.705 56.9062C352.684 58.1354 353.684 59.0833 354.705 59.75C355.747 60.3958 356.768 60.7188 357.768 60.7188C358.976 60.7188 360.059 60.5 361.018 60.0625L361.924 64.2812C360.965 64.8229 360.09 65.1771 359.299 65.3438C358.507 65.5312 357.518 65.625 356.33 65.625Z" fill="#383747"/>
<path d="M279.8 42.5231H318.2V57.0878C318.2 59.081 317.409 60.9925 316.001 62.4019C314.593 63.8113 312.683 64.6031 310.691 64.6031H287.309C285.317 64.6031 283.408 63.8113 281.999 62.4019C280.591 60.9925 279.8 59.081 279.8 57.0878V42.5231Z" fill="#FAA41A" stroke="#5F363A" stroke-width="3" stroke-linecap="round" stroke-linejoin="round"/>
<path d="M279.8 47.3231L275 44.4431" stroke="#5F363A" stroke-width="3" stroke-linecap="round" stroke-linejoin="round"/>
<path d="M318.2 47.3231L323 44.4431" stroke="#5F363A" stroke-width="3" stroke-linecap="round" stroke-linejoin="round"/>
<path d="M285.634 36.7631H312.366C313.913 36.7631 315.397 37.3699 316.491 38.4502C317.585 39.5304 318.2 40.9954 318.2 42.5231H279.8C279.8 40.9954 280.415 39.5304 281.509 38.4502C282.603 37.3699 284.087 36.7631 285.634 36.7631Z" fill="#FFFAF0" stroke="#5F363A" stroke-width="3" stroke-linecap="round" stroke-linejoin="round"/>
<path d="M296.12 32.9231H301.88" stroke="#5F363A" stroke-width="3" stroke-linecap="round" stroke-linejoin="round"/>
<g filter="url(#filter1_d_2_49)">
<path d="M284.053 18.0611C285.382 19.1678 286.056 20.3511 286.06 21.5785C286.065 23.7139 284.072 25.4184 284.053 25.4336C283.971 25.5019 283.903 25.5857 283.853 25.6804C283.803 25.775 283.772 25.8785 283.762 25.9851C283.753 26.0916 283.764 26.199 283.796 26.3011C283.827 26.4033 283.879 26.4982 283.948 26.5803C284.016 26.6625 284.1 26.7303 284.195 26.7799C284.29 26.8295 284.393 26.86 284.5 26.8695C284.606 26.879 284.714 26.8674 284.816 26.8353C284.918 26.8033 285.013 26.7514 285.095 26.6827C285.2 26.5945 287.687 24.4888 287.687 21.5865C287.687 19.8509 286.814 18.244 285.095 16.8112C283.766 15.7038 283.091 14.5205 283.087 13.2931C283.082 11.157 285.076 9.45394 285.096 9.43732C285.261 9.29919 285.365 9.10118 285.384 8.88677C285.403 8.67236 285.337 8.45907 285.199 8.29375C285.131 8.21146 285.047 8.14344 284.952 8.09361C284.858 8.04378 284.754 8.01312 284.648 8.00338C284.542 7.99364 284.434 8.00502 284.332 8.03686C284.23 8.0687 284.136 8.12038 284.054 8.18893C283.948 8.27712 281.462 10.3814 281.462 13.2837C281.461 15.0207 282.333 16.6269 284.053 18.0611Z" fill="white"/>
<path d="M297.989 18.0611C299.318 19.1678 299.993 20.3511 299.997 21.5786C300.002 23.7139 298.008 25.4184 297.989 25.4336C297.907 25.502 297.839 25.5859 297.79 25.6804C297.74 25.775 297.71 25.8784 297.7 25.9848C297.69 26.0911 297.702 26.1984 297.734 26.3003C297.765 26.4023 297.817 26.4969 297.885 26.579C297.954 26.661 298.038 26.7287 298.132 26.7783C298.227 26.8279 298.33 26.8584 298.437 26.868C298.543 26.8777 298.65 26.8663 298.752 26.8345C298.854 26.8027 298.949 26.7511 299.031 26.6827C299.136 26.5945 301.624 24.4888 301.623 21.5865C301.623 19.8509 300.751 18.244 299.031 16.8113C297.702 15.7046 297.027 14.5205 297.024 13.2931C297.019 11.1679 298.993 9.47131 299.032 9.43806C299.197 9.29973 299.301 9.10161 299.32 8.88716C299.339 8.6727 299.272 8.45941 299.134 8.29405C298.996 8.12869 298.799 8.02476 298.584 8.00506C298.37 7.98536 298.156 8.05149 297.991 8.18895C297.885 8.27714 295.399 10.3814 295.398 13.2837C295.397 15.0207 296.269 16.6269 297.989 18.0611Z" fill="white"/>
<path d="M311.983 18.0611C313.312 19.1678 313.986 20.3511 313.989 21.5785C313.995 23.7139 312.001 25.4184 311.983 25.4336C311.817 25.5715 311.713 25.7696 311.694 25.9843C311.674 26.1989 311.741 26.4126 311.879 26.5782C312.017 26.7439 312.215 26.8479 312.429 26.8675C312.644 26.8871 312.858 26.8206 313.023 26.6827C313.129 26.5945 315.616 24.4888 315.615 21.5865C315.615 19.8509 314.744 18.244 313.023 16.8112C311.695 15.7038 311.02 14.5205 311.017 13.2931C311.012 11.1679 312.986 9.47129 313.025 9.43804C313.37 9.15034 313.415 8.63855 313.128 8.29375C313.06 8.21146 312.976 8.14344 312.882 8.09361C312.787 8.04378 312.684 8.01312 312.577 8.00338C312.471 7.99364 312.364 8.00502 312.262 8.03686C312.16 8.0687 312.065 8.12038 311.983 8.18893C311.878 8.27712 309.391 10.3814 309.39 13.2837C309.39 15.0207 310.262 16.6269 311.983 18.0611Z" fill="white"/>
</g>
</g>
<defs>
<filter id="filter0_d_2_49" x="0" y="8" width="445.667" height="101.667" filterUnits="userSpaceOnUse" color-interpolation-filters="sRGB">
<feFlood flood-opacity="0" result="BackgroundImageFix"/>
<feColorMatrix in="SourceAlpha" type="matrix" values="0 0 0 0 0 0 0 0 0 0 0 0 0 0 0 0 0 0 127 0" result="hardAlpha"/>
<feOffset dy="4"/>
<feGaussianBlur stdDeviation="2"/>
<feComposite in2="hardAlpha" operator="out"/>
<feColorMatrix type="matrix" values="0 0 0 0 0 0 0 0 0 0 0 0 0 0 0 0 0 0 0.25 0"/>
<feBlend mode="normal" in2="BackgroundImageFix" result="effect1_dropShadow_2_49"/>
<feBlend mode="normal" in="SourceGraphic" in2="effect1_dropShadow_2_49" result="shape"/>
</filter>
<filter id="filter1_d_2_49" x="277.462" y="8" width="42.1539" height="26.8727" filterUnits="userSpaceOnUse" color-interpolation-filters="sRGB">
<feFlood flood-opacity="0" result="BackgroundImageFix"/>
<feColorMatrix in="SourceAlpha" type="matrix" values="0 0 0 0 0 0 0 0 0 0 0 0 0 0 0 0 0 0 127 0" result="hardAlpha"/>
<feOffset dy="4"/>
<feGaussianBlur stdDeviation="2"/>
<feComposite in2="hardAlpha" operator="out"/>
<feColorMatrix type="matrix" values="0 0 0 0 0 0 0 0 0 0 0 0 0 0 0 0 0 0 0.25 0"/>
<feBlend mode="normal" in2="BackgroundImageFix" result="effect1_dropShadow_2_49"/>
<feBlend mode="normal" in="SourceGraphic" in2="effect1_dropShadow_2_49" result="shape"/>
</filter>
</defs>
</svg>
